<mxfile host="app.diagrams.net" agent="Mozilla/5.0 (Windows NT 10.0; Win64; x64) AppleWebKit/537.36 (KHTML, like Gecko) Chrome/131.0.0.0 Safari/537.36" version="26.0.4">
  <diagram name="Page-1" id="DB3PXrzBuu-iyz9asZHR">
    <mxGraphModel grid="1" page="1" gridSize="10" guides="1" tooltips="1" connect="1" arrows="1" fold="1" pageScale="1" pageWidth="827" pageHeight="1169" math="0" shadow="0">
      <root>
        <mxCell id="0" />
        <mxCell id="1" parent="0" />
        <mxCell id="ARrpn2o_bWsEjoShSXqy-1" value="" style="edgeStyle=orthogonalEdgeStyle;rounded=0;orthogonalLoop=1;jettySize=auto;html=1;" edge="1" parent="1" source="ARrpn2o_bWsEjoShSXqy-2" target="ARrpn2o_bWsEjoShSXqy-7">
          <mxGeometry relative="1" as="geometry" />
        </mxCell>
        <mxCell id="ARrpn2o_bWsEjoShSXqy-2" value="" style="ellipse;whiteSpace=wrap;html=1;aspect=fixed;" vertex="1" parent="1">
          <mxGeometry x="465" y="90" width="20" height="20" as="geometry" />
        </mxCell>
        <mxCell id="ARrpn2o_bWsEjoShSXqy-3" value="" style="edgeStyle=orthogonalEdgeStyle;rounded=0;orthogonalLoop=1;jettySize=auto;html=1;entryX=0.5;entryY=0;entryDx=0;entryDy=0;" edge="1" parent="1" source="ARrpn2o_bWsEjoShSXqy-7" target="ARrpn2o_bWsEjoShSXqy-12">
          <mxGeometry relative="1" as="geometry">
            <mxPoint x="655" y="330" as="targetPoint" />
          </mxGeometry>
        </mxCell>
        <mxCell id="ARrpn2o_bWsEjoShSXqy-4" value="Ano" style="edgeLabel;html=1;align=center;verticalAlign=middle;resizable=0;points=[];" connectable="0" vertex="1" parent="ARrpn2o_bWsEjoShSXqy-3">
          <mxGeometry x="-0.4" relative="1" as="geometry">
            <mxPoint x="-45" y="-48" as="offset" />
          </mxGeometry>
        </mxCell>
        <mxCell id="ARrpn2o_bWsEjoShSXqy-5" value="" style="edgeStyle=orthogonalEdgeStyle;rounded=0;orthogonalLoop=1;jettySize=auto;html=1;" edge="1" parent="1" source="ARrpn2o_bWsEjoShSXqy-7" target="ARrpn2o_bWsEjoShSXqy-10">
          <mxGeometry relative="1" as="geometry" />
        </mxCell>
        <mxCell id="ARrpn2o_bWsEjoShSXqy-6" value="Ne" style="edgeLabel;html=1;align=center;verticalAlign=middle;resizable=0;points=[];" connectable="0" vertex="1" parent="ARrpn2o_bWsEjoShSXqy-5">
          <mxGeometry x="-0.128" y="-3" relative="1" as="geometry">
            <mxPoint x="42" y="-6" as="offset" />
          </mxGeometry>
        </mxCell>
        <mxCell id="ARrpn2o_bWsEjoShSXqy-7" value="Existuje&amp;nbsp;&lt;span style=&quot;background-color: transparent;&quot;&gt;KNM&amp;nbsp;&lt;/span&gt;&lt;div&gt;&lt;span style=&quot;background-color: transparent;&quot;&gt;&lt;i&gt;(pro daný strom, REGCISLOZADOSTI, JI, ...)&lt;/i&gt;&lt;/span&gt;&lt;span style=&quot;background-color: transparent;&quot;&gt;&amp;nbsp;&lt;/span&gt;&lt;/div&gt;&lt;div&gt;&lt;span style=&quot;background-color: transparent;&quot;&gt;s příznaky&amp;nbsp;&lt;/span&gt;&lt;div&gt;&lt;b&gt;PO, PO*, V, V*&lt;/b&gt;?&lt;/div&gt;&lt;/div&gt;" style="rhombus;whiteSpace=wrap;html=1;fillColor=#ffe6cc;strokeColor=#d79b00;" vertex="1" parent="1">
          <mxGeometry x="390" y="150" width="170" height="150" as="geometry" />
        </mxCell>
        <mxCell id="ARrpn2o_bWsEjoShSXqy-8" value="" style="edgeStyle=orthogonalEdgeStyle;rounded=0;orthogonalLoop=1;jettySize=auto;html=1;" edge="1" parent="1" source="ARrpn2o_bWsEjoShSXqy-10" target="ARrpn2o_bWsEjoShSXqy-11">
          <mxGeometry relative="1" as="geometry" />
        </mxCell>
        <mxCell id="ARrpn2o_bWsEjoShSXqy-9" value="Ano" style="edgeLabel;html=1;align=center;verticalAlign=middle;resizable=0;points=[];" connectable="0" vertex="1" parent="ARrpn2o_bWsEjoShSXqy-8">
          <mxGeometry x="-0.4667" relative="1" as="geometry">
            <mxPoint as="offset" />
          </mxGeometry>
        </mxCell>
        <mxCell id="ARrpn2o_bWsEjoShSXqy-10" value="Existuje KNM&amp;nbsp;&lt;div&gt;s příznakem &lt;b&gt;PO40*&lt;/b&gt;?&lt;/div&gt;" style="rhombus;whiteSpace=wrap;html=1;fillColor=#fff2cc;strokeColor=#d6b656;" vertex="1" parent="1">
          <mxGeometry x="200" y="330" width="170" height="150" as="geometry" />
        </mxCell>
        <mxCell id="ARrpn2o_bWsEjoShSXqy-11" value="Poloha se vezme z nejnovější KNM&amp;nbsp;&lt;span style=&quot;background-color: transparent;&quot;&gt;s příznakem PO40*&lt;/span&gt;" style="whiteSpace=wrap;html=1;fillColor=#dae8fc;strokeColor=#6c8ebf;" vertex="1" parent="1">
          <mxGeometry x="200" y="590" width="170" height="60" as="geometry" />
        </mxCell>
        <mxCell id="ARrpn2o_bWsEjoShSXqy-12" value="Poloha se vezme&amp;nbsp;&lt;div&gt;z nejnovější KNM&amp;nbsp;&lt;span style=&quot;background-color: transparent;&quot;&gt;s příznaky V, V*, PO, PO*&lt;/span&gt;&lt;/div&gt;" style="whiteSpace=wrap;html=1;fillColor=#66B2FF;strokeColor=#6c8ebf;" vertex="1" parent="1">
          <mxGeometry x="577.5" y="590" width="162.5" height="60" as="geometry" />
        </mxCell>
        <mxCell id="ARrpn2o_bWsEjoShSXqy-13" value="&lt;div style=&quot;&quot;&gt;&lt;span style=&quot;background-color: transparent;&quot;&gt;&lt;span style=&quot;font-weight: normal;&quot;&gt;Zjištěná KNM se vrátí v elementu&amp;nbsp;&lt;/span&gt;&lt;/span&gt;&lt;/div&gt;&lt;div style=&quot;&quot;&gt;STROM/POLOHA_KNM_CISLO&lt;span style=&quot;font-weight: normal;&quot;&gt;.&lt;/span&gt;&lt;/div&gt;&lt;div style=&quot;&quot;&gt;&lt;span style=&quot;font-weight: normal;&quot;&gt;&lt;br&gt;&lt;/span&gt;&lt;/div&gt;&lt;div style=&quot;&quot;&gt;&lt;span style=&quot;font-weight: normal;&quot;&gt;Poloha z nalezené KNM se použije pro vyhodnocení prostorových kontrol (kromě D008)&amp;nbsp;&lt;/span&gt;&lt;/div&gt;&lt;div style=&quot;&quot;&gt;&lt;span style=&quot;font-weight: normal;&quot;&gt;a bude uložena do vizualizace SWK.&lt;/span&gt;&lt;/div&gt;" style="text;html=1;align=left;verticalAlign=middle;whiteSpace=wrap;rounded=0;fontStyle=1" vertex="1" parent="1">
          <mxGeometry x="380" y="700" width="270" height="120" as="geometry" />
        </mxCell>
        <mxCell id="ARrpn2o_bWsEjoShSXqy-14" value="" style="edgeStyle=orthogonalEdgeStyle;rounded=0;orthogonalLoop=1;jettySize=auto;html=1;exitX=0;exitY=0.5;exitDx=0;exitDy=0;" edge="1" parent="1" source="ARrpn2o_bWsEjoShSXqy-10" target="ARrpn2o_bWsEjoShSXqy-16">
          <mxGeometry relative="1" as="geometry">
            <mxPoint x="200" y="406" as="sourcePoint" />
          </mxGeometry>
        </mxCell>
        <mxCell id="ARrpn2o_bWsEjoShSXqy-15" value="Ne" style="edgeLabel;html=1;align=center;verticalAlign=middle;resizable=0;points=[];" connectable="0" vertex="1" parent="ARrpn2o_bWsEjoShSXqy-14">
          <mxGeometry x="0.4545" y="-2" relative="1" as="geometry">
            <mxPoint y="-5" as="offset" />
          </mxGeometry>
        </mxCell>
        <mxCell id="ARrpn2o_bWsEjoShSXqy-16" value="KNM pro daný strom neexistuje" style="whiteSpace=wrap;html=1;fillColor=#f5f5f5;fontColor=#333333;strokeColor=#666666;" vertex="1" parent="1">
          <mxGeometry x="20" y="590" width="150" height="60" as="geometry" />
        </mxCell>
        <mxCell id="ARrpn2o_bWsEjoShSXqy-17" value="" style="strokeWidth=2;html=1;shape=mxgraph.flowchart.annotation_2;align=left;labelPosition=right;pointerEvents=1;rotation=-90;" vertex="1" parent="1">
          <mxGeometry x="447.5" y="495" width="50" height="370" as="geometry" />
        </mxCell>
        <mxCell id="ARrpn2o_bWsEjoShSXqy-18" value="&lt;div style=&quot;&quot;&gt;Prostorové kontroly se vyhodnotí&lt;/div&gt;&lt;div style=&quot;&quot;&gt;s využitím polohy stromu&amp;nbsp;&lt;/div&gt;&lt;div style=&quot;&quot;&gt;vedené&amp;nbsp;v fLPISu, a to včetně kolizní analýzy pro chybu D008.&lt;/div&gt;" style="text;html=1;align=left;verticalAlign=middle;whiteSpace=wrap;rounded=0;" vertex="1" parent="1">
          <mxGeometry x="37" y="675" width="210" height="90" as="geometry" />
        </mxCell>
        <mxCell id="ARrpn2o_bWsEjoShSXqy-19" value="" style="endArrow=none;html=1;rounded=0;strokeWidth=2;" edge="1" parent="1">
          <mxGeometry width="50" height="50" relative="1" as="geometry">
            <mxPoint x="96" y="684" as="sourcePoint" />
            <mxPoint x="96" y="654" as="targetPoint" />
          </mxGeometry>
        </mxCell>
        <mxCell id="ARrpn2o_bWsEjoShSXqy-20" value="&lt;b style=&quot;font-size: 14px;&quot;&gt;3) Vyhodnocení &quot;vítězné&quot; KNM pro převzetí polohy&amp;nbsp;&lt;/b&gt;" style="text;html=1;align=center;verticalAlign=middle;resizable=0;points=[];autosize=1;strokeColor=none;fillColor=none;" vertex="1" parent="1">
          <mxGeometry x="30" y="80" width="360" height="30" as="geometry" />
        </mxCell>
      </root>
    </mxGraphModel>
  </diagram>
</mxfile>
